<?xml version="1.0"?><svg width="1056" height="286.86614173228344" xmlns="http://www.w3.org/2000/svg">

 <g>
  <title>Layer 1</title>
  <path fill="#000000" fill-rule="evenodd" stroke-width="1px" stroke-opacity="0.660714" id="path2639" d="m46.671928,194.945557c9.62978,-3.360794 19.518768,-5.930054 28.990929,-9.669815c9.751686,-0.91275 18.260155,-5.784302 27.447151,-8.601242c4.698891,-1.987839 12.78833,-5.291229 14.842941,-5.180771c2.054619,-0.144196 10.298485,0.578796 15.306221,2.059692c9.431396,-0.069855 14.679535,-9.585648 25.786484,-11.204071c8.480255,-5.752197 18.690903,-2.865738 28.079407,-5.191086c10.540543,-0.813461 17.675095,-10.367584 28.623016,-9.757156c9.379074,-1.103516 19.393997,-2.959915 27.81958,-7.004211c10.398209,-2.616562 17.902618,-6.394943 27.721771,-7.590424c11.13739,0.776917 27.25766,6.493103 36.067017,-1.400558c7.741028,-4.846878 16.40036,-7.654884 24.38562,-12.033562c8.708313,-2.5345 16.562897,-7.241241 24.582611,-11.220932c4.408539,-1.233963 7.758759,-3.948921 10.754028,-7.136719c2.9953,-3.187805 5.635742,-6.84845 8.624756,-9.973831c8.601318,-3.723289 15.557861,-9.142418 21.896332,-15.996918c4.224945,-5.018036 5.92804,-12.401314 13.710999,-13.726322c6.179047,-6.141712 13.026855,-11.443111 19.558716,-17.234161c2.931427,-9.029938 13.723541,-11.023708 21.234467,-15.181669c4.371063,-1.948549 8.472778,-2.508989 12.573242,-3.33057c4.100433,0.83375 8.199585,2.679689 12.056213,5.28924c1.37619,0.84296 11.670197,-0.790609 13.085938,-0.14257c0.898895,0.451361 3.589233,3.160301 6.530945,4.408142c2.687042,0.356499 6.134796,1.034588 6.511139,1.753609c0.749084,1.647942 0.711029,1.450619 1.463318,2.480209c8.477783,3.603039 17.320374,8.888802 20.976257,11.369701c4.412537,1.60376 8.775452,3.315929 13.075623,5.18103c4.30011,1.865108 8.537476,3.883148 12.698914,6.098648c7.821533,0.628109 8.541199,12.754341 19.719788,16.958801c7.412842,7.857857 17.668335,11.406456 25.147644,19.013046c9.339783,5.164902 18.846069,8.648926 29.958069,7.580872c7.225952,0.325699 15.790283,12.357925 23.406616,17.250641c7.510071,2.011108 15.773804,1.094872 22.647095,6.505638c8.068848,6.042618 15.591797,11.310745 22.776855,18.442398c6.070923,7.47171 14.775024,12.036789 24.633484,9.650177c10.373901,0.15741 19.705261,-6.024353 30.191467,-2.193497c12.782776,1.600159 24.733093,6.832687 35.997009,12.896057c8.60437,3.187424 15.202515,11.92746 25.180481,10.544861c12.12262,0.975113 24.612,1.15181 35.911072,6.274734c8.757568,3.361526 18.647766,1.680878 26.825134,6.746994c12.988342,4.92009 16.32019,6.447723 28.788879,12.918365c9.954224,3.602814 24.358582,7.440552 31.495911,13.899658c7.974426,5.864548 17.047485,9.467239 25.909851,13.16713c9.257202,8.041122 -19.455872,2.791168 -23.691101,3.008713c-17.599854,-0.392426 -28.677185,8.375748 -38.28302,10.899811c-10.685669,3.715866 -19.950562,4.612122 -29.339355,-0.270889c-10.724365,-3.298248 -22.113342,-3.747269 -33.226257,-4.516876c-6.410461,0.630096 -16.854004,-5.607864 -20.984558,-0.594986c2.523926,9.634842 4.241455,13.946335 -8.297852,10.255325c-9.873047,-3.288727 -19.302917,-7.568329 -28.879761,-11.580109c-12.327332,-3.289413 -24.197449,-9.550766 -37.338501,-8.266968c-11.514343,-0.718491 -22.908447,0.915268 -34.308594,1.37738c-12.446411,-0.371002 -25.249756,-1.574051 -37.337219,2.17662c-9.970764,2.771576 -19.997925,5.400238 -29.81842,8.466843c-11.068481,7.330292 -24.984802,3.289612 -37.312073,3.215485c-10.861328,-0.397552 -21.532104,-1.835037 -31.810242,-5.518784c-17.954163,-5.619141 -36.578918,-8.42569 -54.936646,-12.312637c-12.118439,-2.606827 -24.32843,-5.354477 -35.285583,-11.392044c-8.2323,-3.687393 -16.165833,-8.014145 -24.476257,-11.378937c-6.823517,-4.504227 -17.437256,-12.705948 -23.935272,-3.499405c-8.910736,4.32811 -19.104645,4.242065 -26.660431,11.454407c-5.40329,9.296341 -14.436615,14.640579 -25.500397,12.468079c-10.242981,2.620453 -20.411163,0.063843 -30.482574,-2.029739c-11.422607,-2.470367 -22.443695,-6.529282 -34.196442,-7.288696c-10.395233,-2.194275 -20.954681,-3.312851 -31.51059,-4.397003c-11.023865,-1.391388 -22.874512,0.429306 -32.939926,-5.251678c-11.677963,-1.648788 10.088943,-11.70108 -2.763947,-11.638351c-13.165161,-0.549301 -26.927582,-0.206177 -39.067673,5.432236c-9.776001,4.741623 -23.165344,-2.81955 -31.104904,4.998001c-3.38797,9.227463 -14.541733,5.495056 -21.945602,7.277008c-9.595001,4.765244 -20.360062,4.658188 -30.698181,6.378693c-8.528839,1.715469 -17.248306,2.789352 -25.631577,-0.84581c-14.221779,-4.06163 -28.338058,-10.457108 -43.462654,-9.083817c-12.182789,-0.006439 -24.360268,1.746048 -36.533777,0.915207c8.969158,-2.484848 16.883959,-7.138184 24.17964,-12.915756c1.445549,-0.898438 2.927299,-1.813721 4.586758,-2.26088z"/>
 </g>
</svg>
